# xmcd
# 
# Track frame offsets:
#     150
#     17851
#     41485
#     72160
# 
# Disc length: 1274
# 
# Revision: 0
# Processed by: cddbd v1.5.2PL0 Copyright (c) Steve Scherf et al.
# Submitted via: fre:ac v1.0.17
# 
DISCID=2d04f804
DTITLE=REMEDIOS - REMEDIOS Original Soundtrack Vol.1
DYEAR=0
DGENRE=
TTITLE0=Dear Love
TTITLE1=Still…
TTITLE2=I Left You
TTITLE3=Still…~instromental
EXTD=
EXTT0=
EXTT1=
EXTT2=
EXTT3=
PLAYORDER=
